<?xml version="1.0" encoding="UTF-8" standalone="no"?>
<!-- Created with Inkscape (http://www.inkscape.org/) -->
<svg
   xmlns:svg="http://www.w3.org/2000/svg"
   xmlns="http://www.w3.org/2000/svg"
   version="1.0"
   width="535"
   height="328"
   id="svg2">
  <defs
     id="defs4" />
  <g
     transform="translate(-1,-1)"
     id="layer1">
    <rect
       width="535"
       height="328"
       x="1"
       y="1"
       id="rect13481"
       style="opacity:1;fill:#ffffff;fill-opacity:1;stroke:none;stroke-width:2;stroke-linecap:square;stroke-linejoin:miter;stroke-miterlimit:4;stroke-dasharray:none;stroke-opacity:1" />
    <path
       d="M 34.200745,5.7790051 L 214.73542,5.7790051 C 230.48601,5.7790051 243.16608,14.060354 243.16608,24.347052 L 243.16608,305.65294 C 243.16608,315.93964 230.48601,324.22099 214.73542,324.22099 L 34.200745,324.22099 C 18.45016,324.22099 5.7700863,315.93964 5.7700863,305.65294 L 5.7700863,24.347052 C 5.7700863,14.060354 18.45016,5.7790051 34.200745,5.7790051 z"
       id="rect13360"
       style="fill:#e6e6e6;fill-opacity:1;stroke:none;stroke-width:2;stroke-linecap:square;stroke-linejoin:miter;stroke-miterlimit:4;stroke-opacity:1" />
    <path
       d="M 18.288396,21.763611 L 38.022771,21.763611 L 38.022771,24.419861 L 29.741521,24.419861 L 29.741521,45.091736 L 26.569646,45.091736 L 26.569646,24.419861 L 18.288396,24.419861 L 18.288396,21.763611 z M 55.929021,35.622986 L 55.929021,37.029236 L 42.710271,37.029236 C 42.835266,39.008409 43.43162,40.51622 44.499334,41.552673 C 45.567035,42.589134 47.054012,43.107363 48.960271,43.107361 C 50.064426,43.107363 51.134737,42.971946 52.171209,42.701111 C 53.207652,42.43028 54.236297,42.024031 55.257146,41.482361 L 55.257146,44.201111 C 54.22588,44.638611 53.168589,44.971944 52.085271,45.201111 C 51.001925,45.430277 49.902968,45.544861 48.788396,45.544861 C 45.996722,45.544861 43.785786,44.732361 42.155584,43.107361 C 40.525373,41.482365 39.71027,39.28445 39.710271,36.513611 C 39.71027,33.649039 40.483706,31.375604 42.030584,29.693298 C 43.577453,28.011024 45.663389,27.169879 48.288396,27.169861 C 50.64255,27.169879 52.504528,27.927691 53.874334,29.443298 C 55.244108,30.958938 55.929003,33.018831 55.929021,35.622986 L 55.929021,35.622986 z M 53.054021,34.779236 C 53.033173,33.206331 52.593069,31.951124 51.733709,31.013611 C 50.874321,30.076126 49.736301,29.607376 48.319646,29.607361 C 46.715471,29.607376 45.431618,30.060501 44.468084,30.966736 C 43.504537,31.872999 42.94985,33.14904 42.804021,34.794861 L 53.054021,34.779236 z M 75.194646,27.591736 L 68.866521,36.107361 L 75.522771,45.091736 L 72.132146,45.091736 L 67.038396,38.216736 L 61.944646,45.091736 L 58.554021,45.091736 L 65.350896,35.935486 L 59.132146,27.591736 L 62.522771,27.591736 L 67.163396,33.826111 L 71.804021,27.591736 L 75.194646,27.591736 z M 82.429021,22.622986 L 82.429021,27.591736 L 88.350896,27.591736 L 88.350896,29.826111 L 82.429021,29.826111 L 82.429021,39.326111 C 82.429015,40.753199 82.624328,41.669864 83.014959,42.076111 C 83.405577,42.482364 84.199847,42.685488 85.397771,42.685486 L 88.350896,42.685486 L 88.350896,45.091736 L 85.397771,45.091736 C 83.179015,45.091736 81.647766,44.677674 80.804021,43.849548 C 79.960268,43.021426 79.538393,41.513615 79.538396,39.326111 L 79.538396,29.826111 L 77.429021,29.826111 L 77.429021,27.591736 L 79.538396,27.591736 L 79.538396,22.622986 L 82.429021,22.622986 z M 105.17902,22.622986 L 105.17902,27.591736 L 111.1009,27.591736 L 111.1009,29.826111 L 105.17902,29.826111 L 105.17902,39.326111 C 105.17901,40.753199 105.37433,41.669864 105.76496,42.076111 C 106.15558,42.482364 106.94985,42.685488 108.14777,42.685486 L 111.1009,42.685486 L 111.1009,45.091736 L 108.14777,45.091736 C 105.92901,45.091736 104.39777,44.677674 103.55402,43.849548 C 102.71027,43.021426 102.28839,41.513615 102.2884,39.326111 L 102.2884,29.826111 L 100.17902,29.826111 L 100.17902,27.591736 L 102.2884,27.591736 L 102.2884,22.622986 L 105.17902,22.622986 z M 129.86652,35.622986 L 129.86652,37.029236 L 116.64777,37.029236 C 116.77277,39.008409 117.36912,40.51622 118.43683,41.552673 C 119.50453,42.589134 120.99151,43.107363 122.89777,43.107361 C 124.00192,43.107363 125.07224,42.971946 126.10871,42.701111 C 127.14515,42.43028 128.1738,42.024031 129.19465,41.482361 L 129.19465,44.201111 C 128.16338,44.638611 127.10609,44.971944 126.02277,45.201111 C 124.93942,45.430277 123.84047,45.544861 122.7259,45.544861 C 119.93422,45.544861 117.72329,44.732361 116.09308,43.107361 C 114.46287,41.482365 113.64777,39.28445 113.64777,36.513611 C 113.64777,33.649039 114.42121,31.375604 115.96808,29.693298 C 117.51495,28.011024 119.60089,27.169879 122.2259,27.169861 C 124.58005,27.169879 126.44203,27.927691 127.81183,29.443298 C 129.18161,30.958938 129.8665,33.018831 129.86652,35.622986 L 129.86652,35.622986 z M 126.99152,34.779236 C 126.97067,33.206331 126.53057,31.951124 125.67121,31.013611 C 124.81182,30.076126 123.6738,29.607376 122.25715,29.607361 C 120.65297,29.607376 119.36912,30.060501 118.40558,30.966736 C 117.44204,31.872999 116.88735,33.14904 116.74152,34.794861 L 126.99152,34.779236 z M 144.7259,30.279236 C 144.40297,30.091751 144.0514,29.95373 143.67121,29.865173 C 143.29099,29.776647 142.87172,29.732376 142.4134,29.732361 C 140.78839,29.732376 139.54099,30.261022 138.67121,31.318298 C 137.80141,32.375603 137.36651,33.89383 137.36652,35.872986 L 137.36652,45.091736 L 134.4759,45.091736 L 134.4759,27.591736 L 137.36652,27.591736 L 137.36652,30.310486 C 137.97068,29.248002 138.75714,28.45894 139.7259,27.943298 C 140.69464,27.427691 141.87172,27.169879 143.25715,27.169861 C 143.45505,27.169879 143.6738,27.1829 143.9134,27.208923 C 144.15297,27.234983 144.41859,27.274045 144.71027,27.326111 L 144.7259,30.279236 z M 161.39777,30.951111 C 162.1165,29.65946 162.97588,28.706336 163.9759,28.091736 C 164.97588,27.47717 166.15296,27.169879 167.50715,27.169861 C 169.33004,27.169879 170.73629,27.807899 171.7259,29.083923 C 172.71545,30.35998 173.21024,32.175082 173.21027,34.529236 L 173.21027,45.091736 L 170.31965,45.091736 L 170.31965,34.622986 C 170.31962,32.945915 170.02275,31.701124 169.42902,30.888611 C 168.83525,30.076126 167.929,29.669876 166.71027,29.669861 C 165.22067,29.669876 164.04358,30.164668 163.17902,31.154236 C 162.31442,32.143832 161.88213,33.492789 161.88215,35.201111 L 161.88215,45.091736 L 158.99152,45.091736 L 158.99152,34.622986 C 158.99151,32.935498 158.69463,31.688104 158.1009,30.880798 C 157.50713,30.073522 156.59047,29.669876 155.3509,29.669861 C 153.88214,29.669876 152.71547,30.167272 151.8509,31.162048 C 150.98631,32.156853 150.55401,33.503206 150.55402,35.201111 L 150.55402,45.091736 L 147.6634,45.091736 L 147.6634,27.591736 L 150.55402,27.591736 L 150.55402,30.310486 C 151.21026,29.237585 151.99672,28.445919 152.9134,27.935486 C 153.83005,27.425087 154.91859,27.169879 156.17902,27.169861 C 157.44984,27.169879 158.53057,27.492795 159.42121,28.138611 C 160.31182,28.784461 160.97067,29.72196 161.39777,30.951111 L 161.39777,30.951111 z M 178.96027,27.591736 L 181.83527,27.591736 L 181.83527,45.091736 L 178.96027,45.091736 L 178.96027,27.591736 z M 178.96027,20.779236 L 181.83527,20.779236 L 181.83527,24.419861 L 178.96027,24.419861 L 178.96027,20.779236 z M 202.38215,34.529236 L 202.38215,45.091736 L 199.50715,45.091736 L 199.50715,34.622986 C 199.50713,32.966748 199.18421,31.727166 198.5384,30.904236 C 197.89255,30.081334 196.9238,29.669876 195.63215,29.669861 C 194.08005,29.669876 192.8561,30.164668 191.96027,31.154236 C 191.06443,32.143832 190.61651,33.492789 190.61652,35.201111 L 190.61652,45.091736 L 187.7259,45.091736 L 187.7259,27.591736 L 190.61652,27.591736 L 190.61652,30.310486 C 191.30401,29.258418 192.11391,28.471961 193.04621,27.951111 C 193.97849,27.430295 195.05401,27.169879 196.27277,27.169861 C 198.28317,27.169879 199.80401,27.792274 200.83527,29.037048 C 201.8665,30.281855 202.38213,32.112582 202.38215,34.529236 L 202.38215,34.529236 z M 216.1009,36.294861 C 213.77797,36.29487 212.1686,36.560494 211.27277,37.091736 C 210.37693,37.622993 209.92902,38.529243 209.92902,39.810486 C 209.92902,40.831324 210.26495,41.641219 210.93683,42.240173 C 211.6087,42.839134 212.52276,43.138613 213.67902,43.138611 C 215.27276,43.138613 216.5514,42.573509 217.51496,41.443298 C 218.47849,40.313095 218.96026,38.810492 218.96027,36.935486 L 218.96027,36.294861 L 216.1009,36.294861 z M 221.83527,35.107361 L 221.83527,45.091736 L 218.96027,45.091736 L 218.96027,42.435486 C 218.30401,43.497988 217.4863,44.281841 216.50715,44.787048 C 215.52797,45.292257 214.33005,45.544861 212.9134,45.544861 C 211.12172,45.544861 209.69724,45.042257 208.63996,44.037048 C 207.58266,43.031842 207.05402,41.685489 207.05402,39.997986 C 207.05402,38.029243 207.71287,36.54487 209.03058,35.544861 C 210.34829,34.544872 212.31443,34.044872 214.92902,34.044861 L 218.96027,34.044861 L 218.96027,33.763611 C 218.96026,32.440707 218.52536,31.41727 217.65558,30.693298 C 216.78578,29.969355 215.56443,29.607376 213.99152,29.607361 C 212.99151,29.607376 212.01756,29.727168 211.06965,29.966736 C 210.12172,30.206334 209.21027,30.565709 208.33527,31.044861 L 208.33527,28.388611 C 209.38735,27.982378 210.40818,27.677691 211.39777,27.474548 C 212.38735,27.271441 213.35089,27.169879 214.2884,27.169861 C 216.81963,27.169879 218.71026,27.826128 219.96027,29.138611 C 221.21025,30.451126 221.83525,32.440707 221.83527,35.107361 L 221.83527,35.107361 z M 227.77277,20.779236 L 230.64777,20.779236 L 230.64777,45.091736 L 227.77277,45.091736 L 227.77277,20.779236 z"
       id="text2724"
       style="font-size:32px;font-style:normal;font-variant:normal;font-weight:normal;font-stretch:normal;fill:#000000;fill-opacity:1;stroke:none;stroke-width:1px;stroke-linecap:butt;stroke-linejoin:miter;stroke-opacity:1;font-family:DejaVu Sans;-inkscape-font-specification:DejaVu Sans" />
    <path
       d="M 49.513746,218.19383 L 199.42242,218.19383 C 210.50242,218.19383 219.42242,227.11383 219.42242,238.19383 L 219.42242,273.95527 C 219.42242,285.03527 210.50242,293.95527 199.42242,293.95527 L 49.513746,293.95527 C 38.433746,293.95527 29.513746,285.03527 29.513746,273.95527 L 29.513746,238.19383 C 29.513746,227.11383 38.433746,218.19383 49.513746,218.19383 z"
       id="path11879"
       style="fill:#ffffff;fill-opacity:1;stroke:none;stroke-width:2;stroke-linecap:round;stroke-linejoin:miter;stroke-miterlimit:4;stroke-opacity:1" />
    <path
       d="M 49.499021,217.2093 C 37.882318,217.2093 28.499021,226.5926 28.499021,238.2093 L 28.499021,273.9593 C 28.499021,285.576 37.882319,294.9593 49.499021,294.9593 L 199.43652,294.9593 C 211.05322,294.9593 220.43652,285.576 220.43652,273.9593 L 220.43652,238.2093 C 220.43652,226.5926 211.05322,217.2093 199.43652,217.2093 L 49.499021,217.2093 z M 49.499021,219.2093 L 199.43652,219.2093 C 209.97982,219.2093 218.43652,227.666 218.43652,238.2093 L 218.43652,273.9593 C 218.43652,284.5026 209.97982,292.9593 199.43652,292.9593 L 49.499021,292.9593 C 38.955724,292.9593 30.499021,284.5026 30.499021,273.9593 L 30.499021,238.2093 C 30.499021,227.66601 38.955724,219.2093 49.499021,219.2093 z"
       id="rect9054"
       style="fill:#000000;fill-opacity:1;stroke:none;stroke-width:2;stroke-linecap:round;stroke-linejoin:miter;stroke-miterlimit:4;stroke-opacity:1" />
    <path
       d="M 80.783198,246.41047 L 80.783198,261.14973 L 83.880855,261.14973 C 86.496079,261.14973 88.410954,260.55728 89.625484,259.37238 C 90.839988,258.18749 91.447246,256.31705 91.447261,253.76105 C 91.447246,251.222 90.839988,249.36214 89.625484,248.18146 C 88.410954,247.00082 86.496079,246.41048 83.880855,246.41047 L 80.783198,246.41047 z M 78.218746,244.30304 L 83.487301,244.30304 C 87.160467,244.30306 89.856101,245.0669 91.574215,246.59455 C 93.292295,248.12224 94.151344,250.51107 94.151364,253.76105 C 94.151344,257.02799 93.288065,259.4274 91.56152,260.95929 C 89.834943,262.4912 87.14354,263.25715 83.487301,263.25715 L 78.218746,263.25715 L 78.218746,244.30304 z M 98.124996,249.0384 L 100.46094,249.0384 L 100.46094,263.25715 L 98.124996,263.25715 L 98.124996,249.0384 z M 98.124996,243.50324 L 100.46094,243.50324 L 100.46094,246.46125 L 98.124996,246.46125 L 98.124996,243.50324 z M 114.40039,249.45734 L 114.40039,251.66633 C 113.74022,251.3278 113.05468,251.07389 112.34375,250.90461 C 111.6328,250.73535 110.89648,250.65071 110.13476,250.6507 C 108.97525,250.65071 108.10563,250.82845 107.52588,251.1839 C 106.94612,251.53938 106.65625,252.07259 106.65625,252.78351 C 106.65625,253.32519 106.8636,253.75048 107.27832,254.05939 C 107.69303,254.36832 108.52669,254.66243 109.7793,254.94172 L 110.5791,255.11945 C 112.23795,255.47493 113.41649,255.97639 114.11475,256.62385 C 114.81298,257.27131 115.1621,258.17479 115.16211,259.33429 C 115.1621,260.65461 114.63947,261.69987 113.59424,262.47004 C 112.54898,263.24022 111.1123,263.62531 109.28418,263.62531 C 108.52245,263.62531 107.729,263.55125 106.90381,263.40314 C 106.07861,263.25503 105.20898,263.03286 104.29492,262.73664 L 104.29492,260.32453 C 105.1582,260.77311 106.00879,261.10952 106.84668,261.33381 C 107.68456,261.55809 108.51399,261.67023 109.33496,261.67023 C 110.43521,261.67023 111.28157,261.48193 111.87402,261.10529 C 112.46646,260.72867 112.76268,260.19758 112.76269,259.51203 C 112.76268,258.87727 112.54898,258.39061 112.12158,258.05207 C 111.69416,257.71353 110.75683,257.38769 109.30957,257.07453 L 108.49707,256.8841 C 107.0498,256.57942 106.00455,256.11181 105.36133,255.48127 C 104.7181,254.85074 104.39648,253.98535 104.39648,252.88508 C 104.39648,251.54785 104.87044,250.5153 105.81836,249.78743 C 106.76627,249.05957 108.11197,248.69564 109.85547,248.69562 C 110.71874,248.69564 111.53124,248.75911 112.29297,248.88605 C 113.05468,249.01302 113.75715,249.20345 114.40039,249.45734 L 114.40039,249.45734 z M 121.1543,261.12433 L 121.1543,268.66535 L 118.80566,268.66535 L 118.80566,249.0384 L 121.1543,249.0384 L 121.1543,251.1966 C 121.64518,250.35026 122.26513,249.72184 123.01416,249.31135 C 123.76318,248.90088 124.65819,248.69564 125.69922,248.69562 C 127.42577,248.69564 128.8286,249.38118 129.90771,250.75226 C 130.9868,252.12337 131.52635,253.9261 131.52637,256.16047 C 131.52635,258.39485 130.9868,260.19758 129.90771,261.56867 C 128.8286,262.93976 127.42577,263.62531 125.69922,263.62531 C 124.65819,263.62531 123.76318,263.42007 123.01416,263.0096 C 122.26513,262.59911 121.64518,261.97069 121.1543,261.12433 L 121.1543,261.12433 z M 129.10156,256.16047 C 129.10155,254.44238 128.7482,253.09457 128.0415,252.11701 C 127.33479,251.13948 126.3636,250.65071 125.12793,250.6507 C 123.89224,250.65071 122.92105,251.13948 122.21435,252.11701 C 121.50764,253.09457 121.15429,254.44238 121.1543,256.16047 C 121.15429,257.87857 121.50764,259.22639 122.21435,260.20392 C 122.92105,261.18146 123.89224,261.67023 125.12793,261.67023 C 126.3636,261.67023 127.33479,261.18146 128.0415,260.20392 C 128.7482,259.22639 129.10155,257.87857 129.10156,256.16047 L 129.10156,256.16047 z M 135.39844,243.50324 L 137.73437,243.50324 L 137.73437,263.25715 L 135.39844,263.25715 L 135.39844,243.50324 z M 149.07129,256.1097 C 147.18391,256.1097 145.8763,256.32551 145.14844,256.75715 C 144.42057,257.18879 144.05664,257.92512 144.05664,258.96613 C 144.05664,259.79556 144.32959,260.4536 144.87549,260.94025 C 145.42138,261.42691 146.16406,261.67023 147.10351,261.67023 C 148.39843,261.67023 149.43733,261.21109 150.22021,260.29279 C 151.00308,259.3745 151.39452,258.15364 151.39453,256.63019 L 151.39453,256.1097 L 149.07129,256.1097 z M 153.73047,255.14484 L 153.73047,263.25715 L 151.39453,263.25715 L 151.39453,261.09894 C 150.86132,261.96223 150.19693,262.59911 149.40137,263.0096 C 148.60579,263.42007 147.63248,263.62531 146.48144,263.62531 C 145.02571,263.62531 143.86832,263.21694 143.00928,262.40021 C 142.15023,261.58348 141.7207,260.48957 141.7207,259.11848 C 141.7207,257.51887 142.25602,256.31282 143.32666,255.50031 C 144.39729,254.68782 145.99479,254.28157 148.11914,254.28156 L 151.39453,254.28156 L 151.39453,254.05304 C 151.39452,252.97819 151.04117,252.14664 150.33447,251.55842 C 149.62776,250.97021 148.63541,250.6761 147.35742,250.67609 C 146.54491,250.6761 145.75357,250.77343 144.9834,250.96808 C 144.21321,251.16276 143.47265,251.45475 142.76172,251.84406 L 142.76172,249.68586 C 143.61653,249.35579 144.44596,249.10823 145.25,248.94318 C 146.05403,248.77816 146.83691,248.69564 147.59863,248.69562 C 149.65526,248.69564 151.19139,249.22884 152.20703,250.29524 C 153.22264,251.36166 153.73045,252.97819 153.73047,255.14484 L 153.73047,255.14484 z M 164.4707,264.57746 C 163.81054,266.27016 163.16731,267.37466 162.54101,267.89095 C 161.91471,268.40721 161.07682,268.66534 160.02734,268.66535 L 158.16113,268.66535 L 158.16113,266.71027 L 159.53223,266.71027 C 160.17545,266.71027 160.6748,266.55792 161.03027,266.25324 C 161.38574,265.94855 161.77929,265.22915 162.21094,264.09504 L 162.62988,263.02863 L 156.87891,249.0384 L 159.35449,249.0384 L 163.79785,260.15949 L 168.24121,249.0384 L 170.7168,249.0384 L 164.4707,264.57746 z"
       id="text11220"
       style="font-size:26px;font-style:normal;font-variant:normal;font-weight:normal;font-stretch:normal;fill:#000000;fill-opacity:1;stroke:none;stroke-width:1px;stroke-linecap:butt;stroke-linejoin:miter;stroke-opacity:1;font-family:DejaVu Sans;-inkscape-font-specification:DejaVu Sans" />
    <path
       d="M 358.21875,225.03125 L 222.09375,252.59375 L 222.5,254.5625 L 358.59375,227 L 358.21875,225.03125 z"
       id="path12263"
       style="fill:#000000;fill-opacity:1;fill-rule:evenodd;stroke:none;stroke-width:2;stroke-linecap:butt;stroke-linejoin:miter;stroke-miterlimit:4;stroke-dasharray:none;stroke-opacity:1" />
    <path
       d="M 213.25436,255.41017 L 225.23122,244.82242 L 228.40684,260.50411 L 213.25436,255.41017 z"
       style="fill-rule:evenodd;stroke:none;stroke-width:1.6pt;marker-start:none" />
    <path
       d="M 393.4375,236.71875 C 377.36063,268.73801 354.38838,285.38785 324.75,292.34375 C 295.11162,299.29965 258.77247,296.4594 216.3125,289.21875 L 215.96875,291.1875 C 258.52954,298.44534 295.1102,301.3475 325.21875,294.28125 C 355.3273,287.215 378.92229,270.08162 395.21875,237.625 L 393.4375,236.71875 z"
       id="path12784"
       style="fill:#000000;fill-opacity:1;fill-rule:evenodd;stroke:none;stroke-width:2;stroke-linecap:butt;stroke-linejoin:miter;stroke-miterlimit:4;stroke-dasharray:none;stroke-opacity:1" />
    <path
       d="M 207.04636,288.6521 L 222.03422,283.09248 L 219.34459,298.86479 L 207.04636,288.6521 z"
       style="fill-rule:evenodd;stroke:none;stroke-width:1.6pt;marker-start:none" />
    <path
       d="M 433.88012,170.67053 C 380.58667,170.67053 337.34886,187.074 337.34887,207.26428 C 337.34887,227.45457 380.58668,243.82677 433.88012,243.82678 C 487.17357,243.82678 530.44262,227.45457 530.44262,207.26428 C 530.44262,187.07399 487.17358,170.67053 433.88012,170.67053 z"
       id="path12081"
       style="fill:#ffffff;fill-opacity:1;stroke:none;stroke-width:1.62444603;stroke-linecap:square;stroke-linejoin:miter;stroke-miterlimit:5;stroke-opacity:1" />
    <path
       d="M 433.87145,169.97521 C 407.12686,169.97521 382.9009,174.08454 365.28583,180.75803 C 356.4783,184.09477 349.32122,188.08592 344.33172,192.55258 C 339.34222,197.01923 336.51302,201.99127 336.51302,207.24917 C 336.51302,212.50707 339.34222,217.50573 344.33172,221.97238 C 349.32122,226.43904 356.4783,230.40357 365.28583,233.74031 C 382.9009,240.4138 407.12686,244.52313 433.87145,244.52313 C 460.61605,244.52313 484.84201,240.4138 502.45708,233.74031 C 511.26461,230.40357 518.45296,226.43904 523.44246,221.97238 C 528.43197,217.50573 531.22989,212.50707 531.22989,207.24917 C 531.22989,201.99127 528.43197,197.01923 523.44246,192.55258 C 518.45296,188.08592 511.26461,184.09477 502.45708,180.75803 C 484.84201,174.08454 460.61604,169.97521 433.87145,169.97521 z M 433.87145,171.35967 C 460.42031,171.35967 484.46567,175.46875 501.80031,182.036 C 510.46762,185.31961 517.46823,189.20013 522.25402,193.48443 C 527.03982,197.76873 529.6036,202.41193 529.6036,207.24917 C 529.6036,212.08641 527.03982,216.72961 522.25402,221.01391 C 517.46823,225.29821 510.46762,229.20535 501.80031,232.48897 C 484.46567,239.05621 460.42031,243.13867 433.87145,243.13867 C 407.32259,243.13867 383.27722,239.05621 365.9426,232.48897 C 357.27529,229.20535 350.30596,225.29821 345.52016,221.01391 C 340.73437,216.72961 338.13931,212.08641 338.13931,207.24917 C 338.13931,202.41193 340.73437,197.76873 345.52016,193.48443 C 350.30596,189.20013 357.27529,185.31961 365.9426,182.036 C 383.27722,175.46875 407.3226,171.35967 433.87145,171.35967 z"
       id="path9048"
       style="fill:#000000;fill-opacity:1;stroke:none;stroke-width:1.62444603;stroke-linecap:square;stroke-linejoin:miter;stroke-miterlimit:5;stroke-opacity:1" />
    <path
       d="M 255.36297,142.81226 L 252.52118,142.81226 L 251.70086,146.07398 L 254.56219,146.07398 L 255.36297,142.81226 z M 253.89813,137.25562 L 252.8825,141.30835 L 255.73407,141.30835 L 256.75946,137.25562 L 258.32196,137.25562 L 257.3161,141.30835 L 260.36297,141.30835 L 260.36297,142.81226 L 256.93524,142.81226 L 256.13446,146.07398 L 259.23993,146.07398 L 259.23993,147.56812 L 255.7536,147.56812 L 254.73797,151.61109 L 253.17547,151.61109 L 254.18133,147.56812 L 251.32,147.56812 L 250.31414,151.61109 L 248.74188,151.61109 L 249.7575,147.56812 L 246.68133,147.56812 L 246.68133,146.07398 L 250.11883,146.07398 L 250.93914,142.81226 L 247.79461,142.81226 L 247.79461,141.30835 L 251.32,141.30835 L 252.3161,137.25562 L 253.89813,137.25562 z M 268.2536,138.32984 C 267.23797,138.32985 266.47462,138.82952 265.96356,139.82886 C 265.45249,140.82822 265.19695,142.3305 265.19696,144.3357 C 265.19695,146.3344 265.45249,147.83342 265.96356,148.83277 C 266.47462,149.83212 267.23797,150.33179 268.2536,150.33179 C 269.27573,150.33179 270.04233,149.83212 270.5534,148.83277 C 271.06446,147.83342 271.31999,146.3344 271.32,144.3357 C 271.31999,142.3305 271.06446,140.82822 270.5534,139.82886 C 270.04233,138.82952 269.27573,138.32985 268.2536,138.32984 L 268.2536,138.32984 z M 268.2536,136.76734 C 269.8877,136.76735 271.13608,137.41351 271.99871,138.70581 C 272.86133,139.99814 273.29265,141.87477 273.29266,144.3357 C 273.29265,146.79013 272.86133,148.6635 271.99871,149.95581 C 271.13608,151.24813 269.8877,151.89429 268.2536,151.89429 C 266.61948,151.89429 265.37111,151.24813 264.50848,149.95581 C 263.64585,148.6635 263.21453,146.79013 263.21454,144.3357 C 263.21453,141.87477 263.64585,139.99814 264.50848,138.70581 C 265.37111,137.41351 266.61948,136.76735 268.2536,136.76734 L 268.2536,136.76734 z M 289.85516,140.99585 L 289.85516,142.69507 C 289.34734,142.43466 288.82,142.23935 288.27313,142.10913 C 287.72625,141.97894 287.15984,141.91383 286.57391,141.91382 C 285.68198,141.91383 285.01303,142.05055 284.56707,142.32398 C 284.12111,142.59742 283.89813,143.00758 283.89813,143.55445 C 283.89813,143.97112 284.05763,144.29827 284.37664,144.53589 C 284.69565,144.77353 285.33693,144.99977 286.30047,145.2146 L 286.91571,145.35132 C 288.19174,145.62477 289.09832,146.01051 289.63543,146.50855 C 290.17253,147.0066 290.44109,147.70159 290.4411,148.59351 C 290.44109,149.60914 290.03907,150.41317 289.23504,151.00562 C 288.431,151.59807 287.32586,151.89429 285.91961,151.89429 C 285.33367,151.89429 284.72332,151.83732 284.08856,151.72339 C 283.45379,151.60946 282.78485,151.43856 282.08172,151.2107 L 282.08172,149.35523 C 282.74578,149.70028 283.40008,149.95907 284.04461,150.1316 C 284.68914,150.30412 285.32716,150.39039 285.95868,150.39038 C 286.80502,150.39039 287.45607,150.24553 287.9118,149.95581 C 288.36752,149.6661 288.59539,149.25757 288.59539,148.73023 C 288.59539,148.24195 288.431,147.8676 288.10223,147.60718 C 287.77345,147.34677 287.05242,147.09612 285.93914,146.85523 L 285.31414,146.70874 C 284.20086,146.47437 283.39682,146.11467 282.90204,145.62964 C 282.40724,145.14462 282.15985,144.47893 282.15985,143.63257 C 282.15985,142.60394 282.52443,141.80967 283.2536,141.24976 C 283.98276,140.68987 285.01792,140.40993 286.35907,140.40992 C 287.02312,140.40993 287.64812,140.45876 288.23407,140.5564 C 288.82,140.65407 289.36036,140.80055 289.85516,140.99585 L 289.85516,140.99585 z M 295.08954,137.56812 L 295.08954,140.67359 L 298.79071,140.67359 L 298.79071,142.07007 L 295.08954,142.07007 L 295.08954,148.00757 C 295.08953,148.8995 295.2116,149.47242 295.45575,149.72632 C 295.69988,149.98023 296.1963,150.10718 296.945,150.10718 L 298.79071,150.10718 L 298.79071,151.61109 L 296.945,151.61109 C 295.55828,151.61109 294.60125,151.3523 294.07391,150.83472 C 293.54656,150.31714 293.28289,149.37476 293.28289,148.00757 L 293.28289,142.07007 L 291.96454,142.07007 L 291.96454,140.67359 L 293.28289,140.67359 L 293.28289,137.56812 L 295.08954,137.56812 z M 308.36102,142.33374 L 308.36102,136.41578 L 310.15789,136.41578 L 310.15789,151.61109 L 308.36102,151.61109 L 308.36102,149.97046 C 307.98341,150.62151 307.50652,151.1049 306.93036,151.42066 C 306.35418,151.73641 305.66245,151.89429 304.85516,151.89429 C 303.53354,151.89429 302.4577,151.36695 301.62762,150.31226 C 300.79754,149.25757 300.3825,147.87086 300.3825,146.1521 C 300.3825,144.43336 300.79754,143.04664 301.62762,141.99195 C 302.4577,140.93727 303.53354,140.40993 304.85516,140.40992 C 305.66245,140.40993 306.35418,140.5678 306.93036,140.88355 C 307.50652,141.19931 307.98341,141.68271 308.36102,142.33374 L 308.36102,142.33374 z M 302.23797,146.1521 C 302.23797,147.47372 302.50978,148.5105 303.0534,149.26245 C 303.59702,150.01441 304.34409,150.39039 305.29461,150.39038 C 306.24513,150.39039 306.99382,150.01441 307.54071,149.26245 C 308.08757,148.5105 308.36101,147.47372 308.36102,146.1521 C 308.36101,144.8305 308.08757,143.79371 307.54071,143.04175 C 306.99382,142.28981 306.24513,141.91383 305.29461,141.91382 C 304.34409,141.91383 303.59702,142.28981 303.0534,143.04175 C 302.50978,143.79371 302.23797,144.8305 302.23797,146.1521 L 302.23797,146.1521 z M 313.85907,140.67359 L 315.65594,140.67359 L 315.65594,151.61109 L 313.85907,151.61109 L 313.85907,140.67359 z M 313.85907,136.41578 L 315.65594,136.41578 L 315.65594,138.69117 L 313.85907,138.69117 L 313.85907,136.41578 z M 328.49774,145.00953 L 328.49774,151.61109 L 326.70086,151.61109 L 326.70086,145.06812 C 326.70085,144.03297 326.49903,143.25823 326.09539,142.7439 C 325.69174,142.22959 325.08627,141.97243 324.27899,141.97242 C 323.30893,141.97243 322.54396,142.28167 321.98407,142.90015 C 321.42417,143.51865 321.14422,144.36175 321.14422,145.42945 L 321.14422,151.61109 L 319.33758,151.61109 L 319.33758,140.67359 L 321.14422,140.67359 L 321.14422,142.37281 C 321.57391,141.71526 322.08009,141.22373 322.66278,140.8982 C 323.24545,140.57269 323.91765,140.40993 324.67938,140.40992 C 325.93588,140.40993 326.8864,140.79892 327.53094,141.57691 C 328.17546,142.35491 328.49773,143.49912 328.49774,145.00953 L 328.49774,145.00953 z"
       id="text13301"
       style="font-size:20px;font-style:normal;font-variant:normal;font-weight:normal;font-stretch:normal;fill:#000000;fill-opacity:1;stroke:none;stroke-width:1px;stroke-linecap:butt;stroke-linejoin:miter;stroke-opacity:1;font-family:DejaVu Sans;-inkscape-font-specification:DejaVu Sans" />
    <path
       d="M 196.375,142.875 L 195.75,144.78125 L 339.28125,193.5625 L 339.9375,191.6875 L 196.375,142.875 z"
       id="path12782"
       style="fill:#000000;fill-opacity:1;fill-rule:evenodd;stroke:none;stroke-width:2;stroke-linecap:butt;stroke-linejoin:miter;stroke-miterlimit:4;stroke-dasharray:none;stroke-opacity:1" />
    <path
       d="M 348.34794,195.59432 L 332.66966,198.71476 L 337.81876,183.56594 L 348.34794,195.59432 z"
       style="fill-rule:evenodd;stroke:none;stroke-width:1.6pt;marker-start:none" />
    <path
       d="M 45.983312,79.499909 L 195.89199,79.499909 C 206.97199,79.499909 215.89199,88.419909 215.89199,99.499909 L 215.89199,135.26135 C 215.89199,146.34135 206.97199,155.26135 195.89199,155.26135 L 45.983312,155.26135 C 34.903312,155.26135 25.983312,146.34135 25.983312,135.26135 L 25.983312,99.499909 C 25.983312,88.419909 34.903312,79.499909 45.983312,79.499909 z"
       id="path11881"
       style="fill:#ffffff;fill-opacity:1;stroke:none;stroke-width:2;stroke-linecap:round;stroke-linejoin:miter;stroke-miterlimit:4;stroke-opacity:1" />
    <path
       d="M 45.967771,78.496544 C 34.351068,78.496544 24.967771,87.879842 24.967771,99.496544 L 24.967771,135.24654 C 24.967771,146.86324 34.351068,156.24653 45.967771,156.24654 L 195.90527,156.24654 C 207.52197,156.24654 216.90526,146.86324 216.90527,135.24654 L 216.90527,99.496544 C 216.90527,87.879841 207.52197,78.496544 195.90527,78.496544 L 45.967771,78.496544 z M 45.967771,80.496544 L 195.90527,80.496544 C 206.44856,80.496544 214.90527,88.953247 214.90527,99.496544 L 214.90527,135.24654 C 214.90527,145.78983 206.44857,154.24654 195.90527,154.24654 L 45.967771,154.24654 C 35.424473,154.24653 26.967771,145.78984 26.967771,135.24654 L 26.967771,99.496544 C 26.967771,88.953247 35.424474,80.496544 45.967771,80.496544 z"
       id="rect2729"
       style="fill:#000000;fill-opacity:1;stroke:none;stroke-width:2;stroke-linecap:round;stroke-linejoin:miter;stroke-miterlimit:4;stroke-opacity:1" />
    <path
       d="M 236.27108,216.35138 L 233.42929,216.35138 L 232.60897,219.6131 L 235.4703,219.6131 L 236.27108,216.35138 z M 234.80624,210.79474 L 233.79062,214.84748 L 236.64218,214.84748 L 237.66757,210.79474 L 239.23007,210.79474 L 238.22421,214.84748 L 241.27108,214.84748 L 241.27108,216.35138 L 237.84335,216.35138 L 237.04257,219.6131 L 240.14804,219.6131 L 240.14804,221.10724 L 236.66171,221.10724 L 235.64608,225.15021 L 234.08358,225.15021 L 235.08944,221.10724 L 232.22812,221.10724 L 231.22226,225.15021 L 229.64999,225.15021 L 230.66562,221.10724 L 227.58944,221.10724 L 227.58944,219.6131 L 231.02694,219.6131 L 231.84726,216.35138 L 228.70272,216.35138 L 228.70272,214.84748 L 232.22812,214.84748 L 233.22421,210.79474 L 234.80624,210.79474 z M 245.28476,223.49006 L 248.50741,223.49006 L 248.50741,212.36701 L 245.00155,213.07013 L 245.00155,211.27326 L 248.48788,210.57013 L 250.46054,210.57013 L 250.46054,223.49006 L 253.68319,223.49006 L 253.68319,225.15021 L 245.28476,225.15021 L 245.28476,223.49006 z M 270.76327,214.53498 L 270.76327,216.2342 C 270.25545,215.97379 269.72811,215.77848 269.18124,215.64826 C 268.63436,215.51806 268.06795,215.45296 267.48202,215.45295 C 266.59009,215.45296 265.92115,215.58967 265.47519,215.8631 C 265.02922,216.13655 264.80624,216.5467 264.80624,217.09357 C 264.80624,217.51024 264.96574,217.83739 265.28476,218.07502 C 265.60376,218.31265 266.24504,218.53889 267.20858,218.75373 L 267.82382,218.89045 C 269.09985,219.16389 270.00643,219.54963 270.54355,220.04767 C 271.08065,220.54572 271.3492,221.24071 271.34921,222.13263 C 271.3492,223.14826 270.94718,223.9523 270.14315,224.54474 C 269.33911,225.13719 268.23397,225.43341 266.82772,225.43341 C 266.24178,225.43341 265.63143,225.37645 264.99667,225.26252 C 264.3619,225.14858 263.69296,224.97769 262.98983,224.74982 L 262.98983,222.89435 C 263.65389,223.23941 264.30819,223.49819 264.95272,223.67072 C 265.59725,223.84325 266.23527,223.92951 266.86679,223.92951 C 267.71314,223.92951 268.36418,223.78465 268.81991,223.49494 C 269.27563,223.20523 269.5035,222.7967 269.50351,222.26935 C 269.5035,221.78107 269.33911,221.40673 269.01034,221.14631 C 268.68156,220.88589 267.96053,220.63524 266.84726,220.39435 L 266.22226,220.24787 C 265.10897,220.0135 264.30494,219.6538 263.81015,219.16877 C 263.31535,218.68375 263.06796,218.01806 263.06796,217.1717 C 263.06796,216.14306 263.43254,215.34879 264.16171,214.78888 C 264.89087,214.229 265.92603,213.94905 267.26718,213.94904 C 267.93123,213.94905 268.55623,213.99788 269.14218,214.09552 C 269.72811,214.19319 270.26847,214.33968 270.76327,214.53498 L 270.76327,214.53498 z M 275.99765,211.10724 L 275.99765,214.21271 L 279.69882,214.21271 L 279.69882,215.6092 L 275.99765,215.6092 L 275.99765,221.5467 C 275.99764,222.43863 276.11971,223.01154 276.36386,223.26545 C 276.60799,223.51935 277.10441,223.64631 277.85312,223.64631 L 279.69882,223.64631 L 279.69882,225.15021 L 277.85312,225.15021 C 276.46639,225.15021 275.50936,224.89142 274.98202,224.37384 C 274.45468,223.85627 274.191,222.91389 274.19101,221.5467 L 274.19101,215.6092 L 272.87265,215.6092 L 272.87265,214.21271 L 274.19101,214.21271 L 274.19101,211.10724 L 275.99765,211.10724 z M 289.26913,215.87287 L 289.26913,209.9549 L 291.06601,209.9549 L 291.06601,225.15021 L 289.26913,225.15021 L 289.26913,223.50959 C 288.89152,224.16063 288.41463,224.64403 287.83847,224.95978 C 287.26229,225.27554 286.57056,225.43341 285.76327,225.43341 C 284.44165,225.43341 283.36581,224.90607 282.53573,223.85138 C 281.70565,222.7967 281.29061,221.40998 281.29062,219.69123 C 281.29061,217.97248 281.70565,216.58577 282.53573,215.53107 C 283.36581,214.47639 284.44165,213.94905 285.76327,213.94904 C 286.57056,213.94905 287.26229,214.10693 287.83847,214.42267 C 288.41463,214.73844 288.89152,215.22184 289.26913,215.87287 L 289.26913,215.87287 z M 283.14608,219.69123 C 283.14608,221.01285 283.41789,222.04963 283.96151,222.80158 C 284.50513,223.55353 285.2522,223.92951 286.20272,223.92951 C 287.15324,223.92951 287.90194,223.55353 288.44882,222.80158 C 288.99568,222.04963 289.26912,221.01285 289.26913,219.69123 C 289.26912,218.36962 288.99568,217.33284 288.44882,216.58088 C 287.90194,215.82893 287.15324,215.45296 286.20272,215.45295 C 285.2522,215.45296 284.50513,215.82893 283.96151,216.58088 C 283.41789,217.33284 283.14608,218.36962 283.14608,219.69123 L 283.14608,219.69123 z M 299.00546,215.47248 C 298.04191,215.47249 297.28019,215.84846 296.7203,216.60041 C 296.1604,217.35237 295.88046,218.38264 295.88046,219.69123 C 295.88046,220.99982 296.15878,222.0301 296.71542,222.78205 C 297.27206,223.534 298.0354,223.90998 299.00546,223.90998 C 299.96248,223.90998 300.72095,223.53237 301.28085,222.77716 C 301.84074,222.02196 302.12068,220.99331 302.12069,219.69123 C 302.12068,218.39566 301.84074,217.36864 301.28085,216.61017 C 300.72095,215.85172 299.96248,215.47249 299.00546,215.47248 L 299.00546,215.47248 z M 299.00546,213.94904 C 300.56795,213.94905 301.79516,214.45686 302.6871,215.47248 C 303.57902,216.48811 304.02498,217.89436 304.02499,219.69123 C 304.02498,221.4816 303.57902,222.88622 302.6871,223.90509 C 301.79516,224.92397 300.56795,225.43341 299.00546,225.43341 C 297.43644,225.43341 296.2076,224.92397 295.31894,223.90509 C 294.43026,222.88622 293.98593,221.4816 293.98593,219.69123 C 293.98593,217.89436 294.43026,216.48811 295.31894,215.47248 C 296.2076,214.45686 297.43644,213.94905 299.00546,213.94904 L 299.00546,213.94904 z M 306.80819,220.83381 L 306.80819,214.21271 L 308.60507,214.21271 L 308.60507,220.76545 C 308.60507,221.80061 308.80689,222.57697 309.21054,223.09455 C 309.61418,223.61213 310.21965,223.87092 311.02694,223.87091 C 311.99699,223.87092 312.76359,223.56167 313.32675,222.94318 C 313.88989,222.32469 314.17147,221.4816 314.17147,220.41388 L 314.17147,214.21271 L 315.96835,214.21271 L 315.96835,225.15021 L 314.17147,225.15021 L 314.17147,223.47052 C 313.73527,224.13459 313.22908,224.62775 312.65292,224.95002 C 312.07674,225.27228 311.4078,225.43341 310.64608,225.43341 C 309.38957,225.43341 308.43579,225.04279 307.78476,224.26154 C 307.13371,223.48029 306.80819,222.33771 306.80819,220.83381 L 306.80819,220.83381 z M 321.4664,211.10724 L 321.4664,214.21271 L 325.16757,214.21271 L 325.16757,215.6092 L 321.4664,215.6092 L 321.4664,221.5467 C 321.46639,222.43863 321.58846,223.01154 321.83261,223.26545 C 322.07674,223.51935 322.57316,223.64631 323.32187,223.64631 L 325.16757,223.64631 L 325.16757,225.15021 L 323.32187,225.15021 C 321.93514,225.15021 320.97811,224.89142 320.45077,224.37384 C 319.92343,223.85627 319.65975,222.91389 319.65976,221.5467 L 319.65976,215.6092 L 318.3414,215.6092 L 318.3414,214.21271 L 319.65976,214.21271 L 319.65976,211.10724 L 321.4664,211.10724 z"
       id="text13305"
       style="font-size:20px;font-style:normal;font-variant:normal;font-weight:normal;font-stretch:normal;fill:#000000;fill-opacity:1;stroke:none;stroke-width:1px;stroke-linecap:butt;stroke-linejoin:miter;stroke-opacity:1;font-family:DejaVu Sans;-inkscape-font-specification:DejaVu Sans" />
    <path
       d="M 255.36296,273.62703 L 252.52116,273.62703 L 251.70085,276.88875 L 254.56218,276.88875 L 255.36296,273.62703 z M 253.89811,268.07039 L 252.88249,272.12313 L 255.73405,272.12313 L 256.75944,268.07039 L 258.32194,268.07039 L 257.31608,272.12313 L 260.36296,272.12313 L 260.36296,273.62703 L 256.93522,273.62703 L 256.13444,276.88875 L 259.23991,276.88875 L 259.23991,278.38289 L 255.75358,278.38289 L 254.73796,282.42586 L 253.17546,282.42586 L 254.18132,278.38289 L 251.31999,278.38289 L 250.31413,282.42586 L 248.74186,282.42586 L 249.75749,278.38289 L 246.68132,278.38289 L 246.68132,276.88875 L 250.11882,276.88875 L 250.93913,273.62703 L 247.7946,273.62703 L 247.7946,272.12313 L 251.31999,272.12313 L 252.31608,268.07039 L 253.89811,268.07039 z M 265.73405,280.76571 L 272.61882,280.76571 L 272.61882,282.42586 L 263.361,282.42586 L 263.361,280.76571 C 264.1097,279.99097 265.13021,278.95093 266.42253,277.64559 C 267.71484,276.34026 268.52701,275.49878 268.85905,275.12117 C 269.49055,274.41155 269.93163,273.81096 270.18229,273.31942 C 270.43294,272.82789 270.55826,272.34449 270.55827,271.86922 C 270.55826,271.09449 270.28645,270.46298 269.74284,269.97469 C 269.19921,269.48642 268.49121,269.24228 267.61882,269.24227 C 267.00032,269.24228 266.34765,269.3497 265.66081,269.56453 C 264.97396,269.77939 264.23991,270.10491 263.45866,270.5411 L 263.45866,268.54891 C 264.25293,268.22991 264.99512,267.98903 265.68522,267.82625 C 266.37532,267.66351 267.00683,267.58213 267.57975,267.58211 C 269.09016,267.58213 270.29459,267.95973 271.19304,268.71492 C 272.09146,269.47015 272.54068,270.47926 272.54069,271.74227 C 272.54068,272.34124 272.42838,272.90927 272.20378,273.44637 C 271.97916,273.98349 271.57063,274.61662 270.97819,275.34578 C 270.81542,275.53459 270.29784,276.07984 269.42546,276.98153 C 268.55305,277.88322 267.32259,279.14461 265.73405,280.76571 L 265.73405,280.76571 z M 289.85514,271.81063 L 289.85514,273.50985 C 289.34732,273.24944 288.81998,273.05413 288.27311,272.92391 C 287.72623,272.79371 287.15983,272.72861 286.57389,272.7286 C 285.68196,272.72861 285.01302,272.86532 284.56706,273.13875 C 284.12109,273.4122 283.89811,273.82235 283.89811,274.36922 C 283.89811,274.78589 284.05762,275.11304 284.37663,275.35067 C 284.69564,275.5883 285.33691,275.81454 286.30046,276.02938 L 286.91569,276.1661 C 288.19173,276.43954 289.0983,276.82528 289.63542,277.32332 C 290.17252,277.82137 290.44107,278.51636 290.44108,279.40828 C 290.44107,280.42391 290.03906,281.22795 289.23503,281.82039 C 288.43098,282.41284 287.32584,282.70906 285.9196,282.70906 C 285.33366,282.70906 284.72331,282.6521 284.08854,282.53817 C 283.45378,282.42423 282.78483,282.25334 282.08171,282.02547 L 282.08171,280.17 C 282.74577,280.51506 283.40006,280.77384 284.0446,280.94637 C 284.68913,281.1189 285.32715,281.20516 285.95866,281.20516 C 286.80501,281.20516 287.45605,281.0603 287.91179,280.77059 C 288.36751,280.48088 288.59537,280.07235 288.59538,279.545 C 288.59537,279.05672 288.43098,278.68238 288.10222,278.42196 C 287.77343,278.16154 287.0524,277.91089 285.93913,277.67 L 285.31413,277.52352 C 284.20084,277.28915 283.39681,276.92945 282.90202,276.44442 C 282.40723,275.9594 282.15983,275.29371 282.15983,274.44735 C 282.15983,273.41871 282.52441,272.62444 283.25358,272.06453 C 283.98275,271.50465 285.0179,271.2247 286.35905,271.22469 C 287.02311,271.2247 287.64811,271.27353 288.23405,271.37117 C 288.81998,271.46884 289.36034,271.61533 289.85514,271.81063 L 289.85514,271.81063 z M 295.08952,268.38289 L 295.08952,271.48836 L 298.79069,271.48836 L 298.79069,272.88485 L 295.08952,272.88485 L 295.08952,278.82235 C 295.08952,279.71428 295.21159,280.28719 295.45573,280.5411 C 295.69987,280.795 296.19629,280.92196 296.94499,280.92196 L 298.79069,280.92196 L 298.79069,282.42586 L 296.94499,282.42586 C 295.55827,282.42586 294.60124,282.16707 294.07389,281.64949 C 293.54655,281.13192 293.28288,280.18954 293.28288,278.82235 L 293.28288,272.88485 L 291.96452,272.88485 L 291.96452,271.48836 L 293.28288,271.48836 L 293.28288,268.38289 L 295.08952,268.38289 z M 308.361,273.14852 L 308.361,267.23055 L 310.15788,267.23055 L 310.15788,282.42586 L 308.361,282.42586 L 308.361,280.78524 C 307.98339,281.43628 307.5065,281.91968 306.93034,282.23543 C 306.35416,282.55119 305.66243,282.70906 304.85514,282.70906 C 303.53353,282.70906 302.45768,282.18172 301.62761,281.12703 C 300.79753,280.07235 300.38249,278.68563 300.38249,276.96688 C 300.38249,275.24813 300.79753,273.86142 301.62761,272.80672 C 302.45768,271.75204 303.53353,271.2247 304.85514,271.22469 C 305.66243,271.2247 306.35416,271.38258 306.93034,271.69832 C 307.5065,272.01409 307.98339,272.49749 308.361,273.14852 L 308.361,273.14852 z M 302.23796,276.96688 C 302.23795,278.2885 302.50976,279.32528 303.05339,280.07723 C 303.597,280.82918 304.34407,281.20516 305.2946,281.20516 C 306.24511,281.20516 306.99381,280.82918 307.54069,280.07723 C 308.08756,279.32528 308.361,278.2885 308.361,276.96688 C 308.361,275.64527 308.08756,274.60849 307.54069,273.85653 C 306.99381,273.10458 306.24511,272.72861 305.2946,272.7286 C 304.34407,272.72861 303.597,273.10458 303.05339,273.85653 C 302.50976,274.60849 302.23795,275.64527 302.23796,276.96688 L 302.23796,276.96688 z M 323.21452,276.50789 L 323.21452,277.3868 L 314.9528,277.3868 C 315.03092,278.62378 315.40364,279.56616 316.07097,280.21395 C 316.73828,280.86174 317.66764,281.18563 318.85905,281.18563 C 319.54915,281.18563 320.21809,281.10099 320.86589,280.93172 C 321.51366,280.76245 322.15657,280.50855 322.7946,280.17 L 322.7946,281.86922 C 322.15006,282.14266 321.48925,282.35099 320.81218,282.49422 C 320.13508,282.63745 319.44824,282.70906 318.75163,282.70906 C 317.00683,282.70906 315.625,282.20125 314.60612,281.18563 C 313.58724,280.17 313.0778,278.79631 313.0778,277.06453 C 313.0778,275.27418 313.5612,273.85328 314.528,272.80184 C 315.49479,271.75042 316.7985,271.2247 318.43913,271.22469 C 319.91048,271.2247 321.07421,271.69833 321.93034,272.64559 C 322.78645,273.59286 323.21451,274.8803 323.21452,276.50789 L 323.21452,276.50789 z M 321.41764,275.98055 C 321.40461,274.99748 321.12955,274.21298 320.59245,273.62703 C 320.05533,273.04111 319.34407,272.74814 318.45866,272.74813 C 317.45605,272.74814 316.65364,273.03134 316.05143,273.59774 C 315.44922,274.16415 315.10254,274.96168 315.01139,275.99031 L 321.41764,275.98055 z M 332.50163,273.16805 C 332.2998,273.05087 332.08007,272.96461 331.84245,272.90926 C 331.60481,272.85393 331.34277,272.82626 331.05632,272.82625 C 330.04069,272.82626 329.26106,273.15666 328.71745,273.81746 C 328.17383,274.47828 327.90202,275.42717 327.90202,276.66414 L 327.90202,282.42586 L 326.09538,282.42586 L 326.09538,271.48836 L 327.90202,271.48836 L 327.90202,273.18758 C 328.27962,272.52353 328.77116,272.03036 329.37663,271.70809 C 329.98209,271.38583 330.71777,271.2247 331.58366,271.22469 C 331.70735,271.2247 331.84407,271.23284 331.99382,271.2491 C 332.14355,271.26539 332.30956,271.2898 332.49186,271.32235 L 332.50163,273.16805 z M 340.74382,273.16805 C 340.54199,273.05087 340.32226,272.96461 340.08464,272.90926 C 339.847,272.85393 339.58496,272.82626 339.2985,272.82625 C 338.28287,272.82626 337.50325,273.15666 336.95964,273.81746 C 336.41601,274.47828 336.1442,275.42717 336.14421,276.66414 L 336.14421,282.42586 L 334.33757,282.42586 L 334.33757,271.48836 L 336.14421,271.48836 L 336.14421,273.18758 C 336.52181,272.52353 337.01334,272.03036 337.61882,271.70809 C 338.22428,271.38583 338.95996,271.2247 339.82585,271.22469 C 339.94954,271.2247 340.08626,271.23284 340.236,271.2491 C 340.38574,271.26539 340.55175,271.2898 340.73405,271.32235 L 340.74382,273.16805 z"
       id="text13309"
       style="font-size:20px;font-style:normal;font-variant:normal;font-weight:normal;font-stretch:normal;fill:#000000;fill-opacity:1;stroke:none;stroke-width:1px;stroke-linecap:butt;stroke-linejoin:miter;stroke-opacity:1;font-family:DejaVu Sans;-inkscape-font-specification:DejaVu Sans" />
    <path
       d="M 61.390287,105.59938 L 63.95474,105.59938 L 63.95474,113.61012 L 72.460599,105.59938 L 75.761381,105.59938 L 66.354154,114.43531 L 76.434232,124.55348 L 73.057279,124.55348 L 63.95474,115.42555 L 63.95474,124.55348 L 61.390287,124.55348 L 61.390287,105.59938 z M 90.513334,116.86012 L 90.513334,118.0027 L 79.773099,118.0027 C 79.874658,119.61077 80.359195,120.83587 81.226713,121.67799 C 82.094219,122.52011 83.302389,122.94118 84.851224,122.94117 C 85.74835,122.94118 86.617978,122.83115 87.460111,122.6111 C 88.302221,122.39105 89.137995,122.06097 89.967435,121.62086 L 89.967435,123.82985 C 89.129531,124.18531 88.270483,124.45615 87.390287,124.64235 C 86.510068,124.82854 85.617165,124.92164 84.711576,124.92164 C 82.44334,124.92164 80.646955,124.26149 79.322416,122.94117 C 77.997869,121.62086 77.335598,119.83506 77.335599,117.58375 C 77.335598,115.25629 77.964015,113.40912 79.220853,112.04225 C 80.477685,110.6754 82.172507,109.99197 84.305326,109.99195 C 86.218076,109.99197 87.730933,110.60769 88.8439,111.83912 C 89.956842,113.07058 90.513319,114.74424 90.513334,116.86012 L 90.513334,116.86012 z M 88.177396,116.17457 C 88.160457,114.89659 87.802873,113.87673 87.104642,113.115 C 86.40639,112.3533 85.481749,111.97244 84.330717,111.97242 C 83.027324,111.97244 81.984194,112.3406 81.201322,113.07692 C 80.41844,113.81325 79.967757,114.85004 79.849271,116.18727 L 88.177396,116.17457 z M 100.26333,125.87379 C 99.60317,127.5665 98.959941,128.67099 98.333646,129.18727 C 97.707338,129.70354 96.869449,129.96168 95.819974,129.96168 L 93.953763,129.96168 L 93.953763,128.0066 L 95.324857,128.0066 C 95.968082,128.0066 96.467431,127.85426 96.822904,127.54957 C 97.178368,127.24488 97.571922,126.52548 98.003568,125.39137 L 98.422513,124.32496 L 92.671537,110.33473 L 95.147123,110.33473 L 99.590482,121.45582 L 104.03384,110.33473 L 106.50943,110.33473 L 100.26333,125.87379 z M 119.94107,117.4568 C 119.94105,115.73871 119.5877,114.39089 118.88101,113.41334 C 118.17429,112.43581 117.2031,111.94705 115.96743,111.94703 C 114.73175,111.94705 113.76056,112.43581 113.05386,113.41334 C 112.34715,114.39089 111.9938,115.73871 111.9938,117.4568 C 111.9938,119.1749 112.34715,120.52272 113.05386,121.50026 C 113.76056,122.4778 114.73175,122.96657 115.96743,122.96656 C 117.2031,122.96657 118.17429,122.4778 118.88101,121.50026 C 119.5877,120.52272 119.94105,119.1749 119.94107,117.4568 L 119.94107,117.4568 z M 111.9938,112.49293 C 112.48468,111.64659 113.10464,111.01817 113.85366,110.60768 C 114.60268,110.19721 115.4977,109.99197 116.53872,109.99195 C 118.26527,109.99197 119.66811,110.67752 120.74722,112.0486 C 121.82631,113.4197 122.36586,115.22243 122.36587,117.4568 C 122.36586,119.69118 121.82631,121.49391 120.74722,122.865 C 119.66811,124.2361 118.26527,124.92164 116.53872,124.92164 C 115.4977,124.92164 114.60268,124.7164 113.85366,124.30592 C 113.10464,123.89544 112.48468,123.26702 111.9938,122.42067 L 111.9938,124.55348 L 109.64517,124.55348 L 109.64517,104.79957 L 111.9938,104.79957 L 111.9938,112.49293 z M 131.74771,111.97242 C 130.4951,111.97244 129.50486,112.46121 128.777,113.43873 C 128.04914,114.41628 127.6852,115.75564 127.68521,117.4568 C 127.6852,119.15798 128.04702,120.49733 128.77066,121.47486 C 129.49428,122.45241 130.48663,122.94118 131.74771,122.94117 C 132.99184,122.94118 133.97784,122.45029 134.70572,121.46852 C 135.43357,120.48675 135.7975,119.14951 135.79751,117.4568 C 135.7975,115.77256 135.43357,114.43744 134.70572,113.45143 C 133.97784,112.46544 132.99184,111.97244 131.74771,111.97242 L 131.74771,111.97242 z M 131.74771,109.99195 C 133.77895,109.99197 135.37432,110.65212 136.53384,111.97242 C 137.69333,113.29275 138.27308,115.12087 138.2731,117.4568 C 138.27308,119.78428 137.69333,121.61028 136.53384,122.93483 C 135.37432,124.25937 133.77895,124.92164 131.74771,124.92164 C 129.70799,124.92164 128.1105,124.25937 126.95523,122.93483 C 125.79995,121.61028 125.22232,119.78428 125.22232,117.4568 C 125.22232,115.12087 125.79995,113.29275 126.95523,111.97242 C 128.1105,110.65212 129.70799,109.99197 131.74771,109.99195 L 131.74771,109.99195 z M 148.59439,117.40602 C 146.70701,117.40602 145.39939,117.62184 144.67154,118.05348 C 143.94367,118.48512 143.57974,119.22145 143.57974,120.26246 C 143.57974,121.09189 143.85268,121.74993 144.39859,122.23658 C 144.94448,122.72324 145.68715,122.96657 146.62661,122.96656 C 147.92153,122.96657 148.96043,122.50742 149.74331,121.58912 C 150.52618,120.67083 150.91762,119.44997 150.91763,117.92653 L 150.91763,117.40602 L 148.59439,117.40602 z M 153.25357,116.44117 L 153.25357,124.55348 L 150.91763,124.55348 L 150.91763,122.39528 C 150.38442,123.25856 149.72003,123.89544 148.92447,124.30592 C 148.12888,124.7164 147.15558,124.92164 146.00454,124.92164 C 144.54881,124.92164 143.39142,124.51328 142.53238,123.69654 C 141.67332,122.87981 141.2438,121.7859 141.2438,120.41481 C 141.2438,118.8152 141.77912,117.60915 142.84976,116.79664 C 143.92039,115.98415 145.51788,115.5779 147.64224,115.57789 L 150.91763,115.57789 L 150.91763,115.34938 C 150.91762,114.27452 150.56427,113.44297 149.85757,112.85475 C 149.15086,112.26654 148.15851,111.97244 146.88052,111.97242 C 146.06801,111.97244 145.27667,112.06977 144.5065,112.26442 C 143.73631,112.45909 142.99575,112.75108 142.28482,113.14039 L 142.28482,110.98219 C 143.13963,110.65212 143.96906,110.40457 144.7731,110.23951 C 145.57713,110.07449 146.36001,109.99197 147.12173,109.99195 C 149.17836,109.99197 150.71449,110.52517 151.73013,111.59156 C 152.74574,112.65798 153.25355,114.27452 153.25357,116.44117 L 153.25357,116.44117 z M 166.31704,112.51832 C 166.05466,112.36599 165.76902,112.25385 165.46011,112.1819 C 165.15118,112.10997 164.81052,112.074 164.43814,112.07399 C 163.11782,112.074 162.10431,112.50352 161.39761,113.36256 C 160.6909,114.22162 160.33755,115.45518 160.33755,117.06324 L 160.33755,124.55348 L 157.98892,124.55348 L 157.98892,110.33473 L 160.33755,110.33473 L 160.33755,112.54371 C 160.82843,111.68044 161.46743,111.03933 162.25454,110.62037 C 163.04165,110.20144 163.99802,109.99197 165.12368,109.99195 C 165.28448,109.99197 165.46222,110.00255 165.65689,110.02369 C 165.85154,110.04487 166.06736,110.0766 166.30435,110.11891 L 166.31704,112.51832 z M 178.14907,112.49293 L 178.14907,104.79957 L 180.48501,104.79957 L 180.48501,124.55348 L 178.14907,124.55348 L 178.14907,122.42067 C 177.65818,123.26702 177.03822,123.89544 176.28921,124.30592 C 175.54018,124.7164 174.64093,124.92164 173.59146,124.92164 C 171.87335,124.92164 170.47475,124.2361 169.39566,122.865 C 168.31655,121.49391 167.777,119.69118 167.777,117.4568 C 167.777,115.22243 168.31655,113.4197 169.39566,112.0486 C 170.47475,110.67752 171.87335,109.99197 173.59146,109.99195 C 174.64093,109.99197 175.54018,110.19721 176.28921,110.60768 C 177.03822,111.01817 177.65818,111.64659 178.14907,112.49293 L 178.14907,112.49293 z M 170.18911,117.4568 C 170.18911,119.1749 170.54246,120.52272 171.24917,121.50026 C 171.95587,122.4778 172.92706,122.96657 174.16275,122.96656 C 175.39841,122.96657 176.37172,122.4778 177.08267,121.50026 C 177.79359,120.52272 178.14906,119.1749 178.14907,117.4568 C 178.14906,115.73871 177.79359,114.39089 177.08267,113.41334 C 176.37172,112.43581 175.39841,111.94705 174.16275,111.94703 C 172.92706,111.94705 171.95587,112.43581 171.24917,113.41334 C 170.54246,114.39089 170.18911,115.73871 170.18911,117.4568 L 170.18911,117.4568 z"
       id="text3501"
       style="font-size:26px;font-style:normal;font-variant:normal;font-weight:normal;font-stretch:normal;fill:#000000;fill-opacity:1;stroke:none;stroke-width:1px;stroke-linecap:butt;stroke-linejoin:miter;stroke-opacity:1;font-family:DejaVu Sans;-inkscape-font-specification:DejaVu Sans" />
    <path
       d="M 387.32544,197.94983 L 387.32544,204.52405 L 390.302,204.52405 C 391.40355,204.52406 392.25511,204.2389 392.85669,203.66858 C 393.45824,203.09828 393.75902,202.28578 393.75903,201.23108 C 393.75902,200.18422 393.45824,199.37563 392.85669,198.8053 C 392.25511,198.235 391.40355,197.94985 390.302,197.94983 L 387.32544,197.94983 z M 384.95825,196.00452 L 390.302,196.00452 C 392.26293,196.00454 393.74535,196.4479 394.74926,197.3346 C 395.75316,198.22133 396.25511,199.52016 396.25512,201.23108 C 396.25511,202.95766 395.75316,204.26234 394.74926,205.14515 C 393.74535,206.02797 392.26293,206.46937 390.302,206.46936 L 387.32544,206.46936 L 387.32544,213.50061 L 384.95825,213.50061 L 384.95825,196.00452 z M 406.95434,202.39124 C 406.71215,202.25063 406.44847,202.14711 406.16333,202.08069 C 405.87816,202.0143 405.56371,201.98109 405.21997,201.98108 C 404.00121,201.98109 403.06566,202.37758 402.41333,203.17054 C 401.76098,203.96351 401.43481,205.10218 401.43481,206.58655 L 401.43481,213.50061 L 399.26684,213.50061 L 399.26684,200.37561 L 401.43481,200.37561 L 401.43481,202.41468 C 401.88793,201.61781 402.47777,201.02602 403.20434,200.63929 C 403.9309,200.25258 404.81371,200.05922 405.85278,200.05921 C 406.00121,200.05922 406.16527,200.06899 406.34497,200.0885 C 406.52465,200.10805 406.72386,200.13735 406.94262,200.1764 L 406.95434,202.39124 z M 414.32544,201.88733 C 413.16918,201.88734 412.25512,202.33852 411.58325,203.24085 C 410.91137,204.1432 410.57543,205.37953 410.57544,206.94983 C 410.57543,208.52015 410.90942,209.75648 411.57739,210.65882 C 412.24535,211.56116 413.16137,212.01233 414.32544,212.01233 C 415.47387,212.01233 416.38402,211.55921 417.0559,210.65296 C 417.72777,209.74671 418.06371,208.51234 418.06372,206.94983 C 418.06371,205.39515 417.72777,204.16273 417.0559,203.25257 C 416.38402,202.34242 415.47387,201.88734 414.32544,201.88733 L 414.32544,201.88733 z M 414.32544,200.05921 C 416.20043,200.05922 417.67308,200.6686 418.7434,201.88733 C 419.8137,203.10609 420.34886,204.79359 420.34887,206.94983 C 420.34886,209.09827 419.8137,210.78382 418.7434,212.00647 C 417.67308,213.22913 416.20043,213.84046 414.32544,213.84046 C 412.44262,213.84046 410.96801,213.22913 409.90161,212.00647 C 408.8352,210.78382 408.302,209.09827 408.302,206.94983 C 408.302,204.79359 408.8352,203.10609 409.90161,201.88733 C 410.96801,200.6686 412.44262,200.05922 414.32544,200.05921 L 414.32544,200.05921 z M 432.54809,206.78577 C 432.54808,205.22328 432.22582,204.01234 431.5813,203.15296 C 430.93675,202.29359 430.03246,201.86391 428.8684,201.8639 C 427.71215,201.86391 426.81176,202.29359 426.16723,203.15296 C 425.5227,204.01234 425.20043,205.22328 425.20044,206.78577 C 425.20043,208.34046 425.5227,209.54749 426.16723,210.40686 C 426.81176,211.26624 427.71215,211.69593 428.8684,211.69593 C 430.03246,211.69593 430.93675,211.26624 431.5813,210.40686 C 432.22582,209.54749 432.54808,208.34046 432.54809,206.78577 L 432.54809,206.78577 z M 434.70434,211.87171 C 434.70433,214.10608 434.20824,215.76819 433.21606,216.85804 C 432.22386,217.94788 430.70433,218.4928 428.65747,218.4928 C 427.89965,218.4928 427.18481,218.43616 426.51294,218.32288 C 425.84106,218.20959 425.18871,218.03577 424.5559,217.8014 L 424.5559,215.70374 C 425.18871,216.04749 425.81371,216.30139 426.4309,216.46546 C 427.04809,216.62952 427.67699,216.71155 428.31762,216.71155 C 429.73168,216.71155 430.79027,216.34241 431.4934,215.60413 C 432.19652,214.86585 432.54808,213.75061 432.54809,212.25843 L 432.54809,211.19202 C 432.10277,211.96546 431.53246,212.54358 430.83715,212.9264 C 430.14183,213.30921 429.3098,213.50061 428.34106,213.50061 C 426.73168,213.50061 425.43481,212.88733 424.45044,211.66077 C 423.46606,210.43421 422.97387,208.80921 422.97387,206.78577 C 422.97387,204.75453 423.46606,203.12562 424.45044,201.89905 C 425.43481,200.6725 426.73168,200.05922 428.34106,200.05921 C 429.3098,200.05922 430.14183,200.25063 430.83715,200.63343 C 431.53246,201.01625 432.10277,201.59438 432.54809,202.3678 L 432.54809,200.37561 L 434.70434,200.37561 L 434.70434,211.87171 z M 446.75122,202.39124 C 446.50902,202.25063 446.24535,202.14711 445.9602,202.08069 C 445.67504,202.0143 445.36058,201.98109 445.01684,201.98108 C 443.79809,201.98109 442.86254,202.37758 442.2102,203.17054 C 441.55785,203.96351 441.23168,205.10218 441.23169,206.58655 L 441.23169,213.50061 L 439.06372,213.50061 L 439.06372,200.37561 L 441.23169,200.37561 L 441.23169,202.41468 C 441.68481,201.61781 442.27465,201.02602 443.00122,200.63929 C 443.72777,200.25258 444.61058,200.05922 445.64965,200.05921 C 445.79808,200.05922 445.96215,200.06899 446.14184,200.0885 C 446.32152,200.10805 446.52074,200.13735 446.7395,200.1764 L 446.75122,202.39124 z M 455.00122,206.90296 C 453.25902,206.90296 452.05199,207.10218 451.38012,207.50061 C 450.70824,207.89906 450.37231,208.57874 450.37231,209.53968 C 450.37231,210.3053 450.62426,210.91273 451.12817,211.36194 C 451.63207,211.81116 452.31762,212.03577 453.18481,212.03577 C 454.38012,212.03577 455.3391,211.61194 456.06176,210.76429 C 456.78441,209.91663 457.14574,208.78968 457.14575,207.38343 L 457.14575,206.90296 L 455.00122,206.90296 z M 459.302,206.01233 L 459.302,213.50061 L 457.14575,213.50061 L 457.14575,211.50843 C 456.65355,212.3053 456.04027,212.89319 455.3059,213.2721 C 454.57152,213.651 453.67309,213.84046 452.61059,213.84046 C 451.26684,213.84046 450.19848,213.4635 449.40551,212.7096 C 448.61254,211.95569 448.21606,210.94593 448.21606,209.6803 C 448.21606,208.20374 448.7102,207.09046 449.69848,206.34046 C 450.68676,205.59047 452.16137,205.21547 454.12231,205.21546 L 457.14575,205.21546 L 457.14575,205.00452 C 457.14574,204.01234 456.81957,203.24476 456.16723,202.70179 C 455.51488,202.15883 454.59887,201.88734 453.41919,201.88733 C 452.66918,201.88734 451.93871,201.97719 451.22778,202.15686 C 450.51684,202.33656 449.83325,202.60609 449.177,202.96546 L 449.177,200.97327 C 449.96606,200.6686 450.73168,200.44008 451.47387,200.28772 C 452.21606,200.13539 452.93871,200.05922 453.64184,200.05921 C 455.54027,200.05922 456.95824,200.55141 457.89575,201.53577 C 458.83324,202.52016 459.30199,204.01234 459.302,206.01233 L 459.302,206.01233 z M 473.97387,202.89515 C 474.51292,201.92641 475.15745,201.21156 475.90747,200.75061 C 476.65745,200.28969 477.54026,200.05922 478.5559,200.05921 C 479.92307,200.05922 480.97776,200.53774 481.71997,201.49475 C 482.46213,202.4518 482.83323,203.81312 482.83325,205.57874 L 482.83325,213.50061 L 480.66528,213.50061 L 480.66528,205.64905 C 480.66526,204.39125 480.4426,203.45766 479.99731,202.84827 C 479.55198,202.23891 478.87229,201.93422 477.95825,201.93421 C 476.84105,201.93422 475.95823,202.30531 475.30981,203.04749 C 474.66136,203.78969 474.33714,204.8014 474.33715,206.08265 L 474.33715,213.50061 L 472.16919,213.50061 L 472.16919,205.64905 C 472.16918,204.38344 471.94652,203.44789 471.50122,202.84241 C 471.0559,202.23695 470.3684,201.93422 469.43872,201.93421 C 468.33715,201.93422 467.46215,202.30727 466.81372,203.05335 C 466.16528,203.79945 465.84106,204.80922 465.84106,206.08265 L 465.84106,213.50061 L 463.67309,213.50061 L 463.67309,200.37561 L 465.84106,200.37561 L 465.84106,202.41468 C 466.33324,201.61 466.92309,201.01625 467.61059,200.63343 C 468.29809,200.25063 469.11449,200.05922 470.05981,200.05921 C 471.01293,200.05922 471.82347,200.30141 472.49145,200.78577 C 473.15941,201.27016 473.65355,201.97328 473.97387,202.89515 L 473.97387,202.89515 z"
       id="text13316"
       style="font-size:24px;font-style:normal;font-variant:normal;font-weight:normal;font-stretch:normal;fill:#000000;fill-opacity:1;stroke:none;stroke-width:1px;stroke-linecap:butt;stroke-linejoin:miter;stroke-opacity:1;font-family:DejaVu Sans;-inkscape-font-specification:DejaVu Sans" />
  </g>
</svg>
